<?xml version="1.0" encoding="UTF-8"?>
<svg xmlns="http://www.w3.org/2000/svg" width="32" height="32" viewBox="0 0 512 512" style="shape-rendering:geometricPrecision; text-rendering:geometricPrecision; image-rendering:optimizeQuality; fill-rule:evenodd; clip-rule:evenodd">
  <g><path fill="#00cc76" d="M 369.5,-0.5 C 377.5,-0.5 385.5,-0.5 393.5,-0.5C 408.415,3.48217 423.415,7.64884 438.5,12C 458.422,18.4217 471.422,31.5884 477.5,51.5C 480.028,61.8062 480.028,72.1395 477.5,82.5C 471.422,102.412 458.422,115.578 438.5,122C 425.5,125.667 412.5,129.333 399.5,133C 380.662,136.802 362.662,134.469 345.5,126C 336.682,120.671 328.015,115.171 319.5,109.5C 319.5,81.1667 319.5,52.8333 319.5,24.5C 327.617,19.5566 335.617,14.3899 343.5,9C 351.882,4.70954 360.548,1.54287 369.5,-0.5 Z"/></g>
  <g><path fill="#90e36a" d="M 176.5,25.5 C 176.5,53.1667 176.5,80.8333 176.5,108.5C 141.178,112.489 121.511,132.156 117.5,167.5C 121.511,202.844 141.178,222.511 176.5,226.5C 176.5,254.167 176.5,281.833 176.5,309.5C 117.091,307.559 73.9244,280.226 47,227.5C 24.3031,171.711 31.6364,120.378 69,73.5C 97.6968,41.7584 133.53,25.7584 176.5,25.5 Z"/></g>
  <g><path fill="#00cc76" d="M 176.5,25.5 C 200.167,25.5 223.833,25.5 247.5,25.5C 247.5,53.1667 247.5,80.8333 247.5,108.5C 223.833,108.5 200.167,108.5 176.5,108.5C 176.5,80.8333 176.5,53.1667 176.5,25.5 Z"/></g>
  <g><path fill="#009986" d="M 319.5,24.5 C 319.5,52.8333 319.5,81.1667 319.5,109.5C 295.575,108.51 271.575,108.177 247.5,108.5C 247.5,80.8333 247.5,53.1667 247.5,25.5C 271.575,25.8229 295.575,25.4895 319.5,24.5 Z"/></g>
  <g><path fill="#ff415b" d="M 477.5,51.5 C 488.833,51.5 500.167,51.5 511.5,51.5C 511.5,61.8333 511.5,72.1667 511.5,82.5C 500.167,82.5 488.833,82.5 477.5,82.5C 480.028,72.1395 480.028,61.8062 477.5,51.5 Z"/></g>
  <g><path fill="#00cc76" d="M 176.5,226.5 C 200.167,226.5 223.833,226.5 247.5,226.5C 247.5,254.167 247.5,281.833 247.5,309.5C 223.833,309.5 200.167,309.5 176.5,309.5C 176.5,281.833 176.5,254.167 176.5,226.5 Z"/></g>
  <g><path fill="#00cc76" d="M 319.5,226.5 C 378.76,223.379 424.593,246.379 457,295.5C 479.595,337.11 482.595,380.11 466,424.5C 443.105,474.23 404.605,503.23 350.5,511.5C 340.167,511.5 329.833,511.5 319.5,511.5C 319.5,483.833 319.5,456.167 319.5,428.5C 345.019,431.392 365.853,423.059 382,403.5C 399.157,374.583 395.991,348.083 372.5,324C 356.847,312.168 339.181,307.335 319.5,309.5C 319.5,281.833 319.5,254.167 319.5,226.5 Z"/></g>
  <g><path fill="#009986" d="M 247.5,226.5 C 271.5,226.5 295.5,226.5 319.5,226.5C 319.5,254.167 319.5,281.833 319.5,309.5C 295.5,309.5 271.5,309.5 247.5,309.5C 247.5,281.833 247.5,254.167 247.5,226.5 Z"/></g>
  <g><path fill="#90e36a" d="M 176.5,428.5 C 176.5,456.167 176.5,483.833 176.5,511.5C 117.5,511.5 58.5,511.5 -0.5,511.5C -0.5,502.167 -0.5,492.833 -0.5,483.5C 5.91408,456.248 22.5807,438.414 49.5,430C 91.794,428.528 134.127,428.028 176.5,428.5 Z"/></g>
  <g><path fill="#00cc76" d="M 176.5,428.5 C 200.167,428.5 223.833,428.5 247.5,428.5C 247.5,456.167 247.5,483.833 247.5,511.5C 223.833,511.5 200.167,511.5 176.5,511.5C 176.5,483.833 176.5,456.167 176.5,428.5 Z"/></g>
  <g><path fill="#009986" d="M 247.5,428.5 C 271.5,428.5 295.5,428.5 319.5,428.5C 319.5,456.167 319.5,483.833 319.5,511.5C 295.5,511.5 271.5,511.5 247.5,511.5C 247.5,483.833 247.5,456.167 247.5,428.5 Z"/></g>
</svg>
